<svg id="Layer_1" data-name="Layer 1" xmlns="http://www.w3.org/2000/svg" viewBox="0 0 400 400"><defs><style>.cls-1{fill:#fff;}</style></defs><title>kaupunkipyora</title><path class="cls-1" d="M0,257.44a77.84,77.84,0,0,0,153.84,16.83h33.09a10.39,10.39,0,0,0,3.76-.65l.32-.13a10,10,0,0,0,4-3l90.88-101.91L291.38,186a77.83,77.83,0,1,0,30.79-6.35,79.47,79.47,0,0,0-11.83.89s-2.89-8.67-5.79-17.33h1.3l49.37.16h0a6,6,0,0,0,5.94-5.16l9-62.67a6,6,0,0,0-5.94-6.85H306.77a6,6,0,0,0-5.89,7.13l10.6,55.4-5.69,0-5.27.07c-1-3-1.72-5-1.83-5.23L286,76.87a9.86,9.86,0,0,0-8-6.78l-38.17-5.27a9.86,9.86,0,0,0-2.7,19.54l29.33,4.41L280,151.32s-9.93,11.16-34.77,40-66.65,28.25-66.65,28.25L139.94,122H167.4a9.86,9.86,0,1,0,0-19.71H101.6a9.86,9.86,0,1,0,0,19.71h17.07l6.5,16a11,11,0,0,0-.94,1.63l-20.39,44.45A77.89,77.89,0,0,0,0,257.44Zm314-156.8h43.25L350,151.3l-26.33-.09ZM297.39,204.87l17.92,56.48a9.86,9.86,0,1,0,18.79-6L316.39,199.6c1.91-.19,3.83-.28,5.78-.28a58.11,58.11,0,1,1-24.78,5.55ZM121.43,193l13.83-30.16,37.25,91.72h-16.9A77.82,77.82,0,0,0,121.43,193Zm14.45,61.56H93.2l19.87-43.32A58.11,58.11,0,0,1,135.88,254.56ZM19.71,257.44a57.69,57.69,0,0,1,7-27.62l41.91,40.65a13.08,13.08,0,0,0,9.18,3.8h55.65A58.13,58.13,0,0,1,19.71,257.44Z"/></svg>