<?xml version="1.0" encoding="UTF-8" standalone="no"?>
<svg
   xmlns:dc="http://purl.org/dc/elements/1.1/"
   xmlns:cc="http://creativecommons.org/ns#"
   xmlns:rdf="http://www.w3.org/1999/02/22-rdf-syntax-ns#"
   xmlns:svg="http://www.w3.org/2000/svg"
   xmlns="http://www.w3.org/2000/svg"
   xmlns:sodipodi="http://sodipodi.sourceforge.net/DTD/sodipodi-0.dtd"
   xmlns:inkscape="http://www.inkscape.org/namespaces/inkscape"
   inkscape:export-ydpi="184.23184"
   inkscape:export-xdpi="184.23184"
   inkscape:export-filename="F:\CodingProjects\Python\NysseAsemanaytto\resources\textures\elements\footer\footer.png"
   width="2508.5884"
   height="533.58856"
   viewBox="0 0 1881.4412 400.19142"
   version="1.2"
   id="svg15"
   sodipodi:docname="footer.svg"
   inkscape:version="1.0 (4035a4fb49, 2020-05-01)">
  <metadata
     id="metadata21">
    <rdf:RDF>
      <cc:Work
         rdf:about="">
        <dc:format>image/svg+xml</dc:format>
        <dc:type
           rdf:resource="http://purl.org/dc/dcmitype/StillImage" />
        <dc:title />
      </cc:Work>
    </rdf:RDF>
  </metadata>
  <defs
     id="defs19" />
  <sodipodi:namedview
     inkscape:document-rotation="0"
     pagecolor="#1c57cf"
     bordercolor="#666666"
     borderopacity="1"
     objecttolerance="10"
     gridtolerance="10"
     guidetolerance="10"
     inkscape:pageopacity="0"
     inkscape:pageshadow="2"
     inkscape:window-width="1169"
     inkscape:window-height="867"
     id="namedview17"
     showgrid="false"
     inkscape:zoom="0.22627417"
     inkscape:cx="628.11084"
     inkscape:cy="-241.04253"
     inkscape:window-x="1898"
     inkscape:window-y="176"
     inkscape:window-maximized="0"
     inkscape:current-layer="svg15"
     inkscape:snap-bbox="true"
     inkscape:bbox-paths="true"
     inkscape:bbox-nodes="true"
     inkscape:snap-bbox-edge-midpoints="true"
     inkscape:snap-bbox-midpoints="true"
     inkscape:object-paths="true"
     inkscape:snap-intersection-paths="true"
     inkscape:snap-smooth-nodes="true"
     inkscape:snap-midpoints="true"
     inkscape:snap-object-midpoints="true"
     inkscape:snap-center="true"
     inkscape:snap-text-baseline="true"
     inkscape:snap-page="true"
     fit-margin-top="0"
     units="px"
     fit-margin-left="0"
     fit-margin-right="0"
     fit-margin-bottom="0" />
  <g
     id="surface417987"
     transform="translate(0,0.00390625)">
    <path
       id="path83"
       d="M 320.15234,-0.00390625 H 80.039063 C 35.835938,-0.00390625 0,35.832031 0,80.035156 V 320.15234 c 0,44.20313 35.835938,80.03516 80.039063,80.03516 H 320.15234 c 44.20313,0 80.03907,-35.83203 80.03907,-80.03516 V 80.035156 c 0,-44.203125 -35.83594,-80.03906225 -80.03907,-80.03906225 z m 0,20.01171925 c 33.10157,0 60.03125,26.929687 60.03125,60.027343 V 320.15234 c 0,33.09766 -26.92968,60.02735 -60.03125,60.02735 H 80.039063 C 46.9375,380.17969 20.011719,353.25 20.011719,320.15234 V 80.035156 c 0,-33.097656 26.925781,-60.027343 60.027344,-60.027343 H 320.15234"
       style="fill:#ffffff;fill-opacity:1;fill-rule:nonzero;stroke:none" />
    <path
       id="path85"
       d="m 299.03125,179.03906 c 0,55.10547 -55.94922,54.50781 -55.94922,54.50781 h -86.1875 c 0,0 -55.92578,0.56641 -55.92578,-54.53906 0,-1.3164 0.008,-4.44531 0.0117,-8.51172 0,0 -0.0117,-54.15625 -0.0117,-59.8164 0,-30.609377 28.48047,-28.605471 28.48047,-28.605471 h 141.07812 c 0,0 28.50391,-1.980469 28.50391,28.628911 0,5.66015 -0.0117,59.89843 -0.0117,59.89843 0.008,4.06641 0.0117,7.1211 0.0117,8.4375 m -17.11719,103.8086 c -9.23828,0 -16.72656,-7.48829 -16.72656,-16.72657 0,-9.23828 7.48828,-16.72656 16.72656,-16.72656 9.23828,0 16.72656,7.48828 16.72656,16.72656 0,9.23828 -7.48828,16.72657 -16.72656,16.72657 m -35.71094,-13.00782 h -92.92968 c -2.05078,0 -3.71485,-1.66406 -3.71485,-3.71875 0,-2.05078 1.66407,-3.71484 3.71485,-3.71484 h 92.92968 c 2.05079,0 3.71875,1.66406 3.71875,3.71484 0,2.05469 -1.66796,3.71875 -3.71875,3.71875 m 0,16.72657 h -92.92968 c -2.05078,0 -3.71485,-1.66407 -3.71485,-3.71875 0,-2.05079 1.66407,-3.71485 3.71485,-3.71485 h 92.92968 c 2.05079,0 3.71875,1.66406 3.71875,3.71485 0,2.05468 -1.66796,3.71875 -3.71875,3.71875 m -128.25781,-3.71875 c -9.23828,0 -16.72656,-7.48829 -16.72656,-16.72657 0,-9.23828 7.48828,-16.72656 16.72656,-16.72656 9.23828,0 16.72656,7.48828 16.72656,16.72656 0,9.23828 -7.48828,16.72657 -16.72656,16.72657 M 278.64453,60.699219 H 121.56641 c -22.632816,0 -41.34766,18.339844 -41.34766,40.972661 v 184.37109 c 0,7.57031 6.488281,13.48437 14.039063,13.48437 h 6.406247 v 33.125 c 0,3.77344 3.21485,6.83203 6.98047,6.83203 h 27.93359 c 3.76954,0 6.90235,-3.05859 6.90235,-6.83203 v -33.125 h 114.30078 v 33.125 c 0,3.77344 3.44922,6.83203 7.21484,6.83203 h 27.9375 c 3.76563,0 6.66797,-3.05859 6.66797,-6.83203 v -33.125 h 7.33203 c 7.5586,0 14.03907,-5.91406 14.03907,-13.48437 V 101.67188 c 0,-22.632817 -18.73438,-40.972661 -41.32813,-40.972661"
       style="fill:#ffffff;fill-opacity:1;fill-rule:nonzero;stroke:none" />
  </g>
  <g
     id="surface451248"
     transform="translate(493.94173)">
    <path
       id="path99"
       d="M 121.98438,350 H 92.761719 l 50.667971,-38.89844 15.80078,0.42578 L 121.98438,350"
       style="fill:#ffffff;fill-opacity:1;fill-rule:nonzero;stroke:none" />
    <path
       id="path101"
       d="m 278.01953,350 h 29.22656 L 256.57812,311.10156 240.77734,311.52734 278.01953,350"
       style="fill:#ffffff;fill-opacity:1;fill-rule:nonzero;stroke:none" />
    <path
       id="path103"
       d="m 268.59766,203.35547 c 0,42.35547 -42.83985,41.8789 -42.83985,41.8789 h -51.67187 c 0,0 -42.82032,0.44532 -42.82032,-41.88281 0,-1.01953 0.004,-3.375 0.008,-6.49609 0,0 -0.008,-74.41016 -0.008,-78.80469 0,-23.468749 21.80469,-21.945311 21.80469,-21.945311 h 93.66406 c 0,0 21.86329,-1.507813 21.86329,21.953121 0,4.38672 -0.008,78.82422 -0.008,78.82422 0.008,3.125 0.008,5.48438 0.008,6.47266 m -12.90625,77.58203 c -7.10547,0 -12.84766,-5.70313 -12.84766,-12.78906 0,-7.09766 5.74219,-12.88282 12.84766,-12.88282 7.10546,0 12.83203,5.78516 12.83203,12.88282 0,7.08593 -5.72657,12.78906 -12.83203,12.78906 m -111.41016,0 c -7.05469,0 -12.83594,-5.70313 -12.83594,-12.78906 0,-7.09766 5.78125,-12.88282 12.83594,-12.88282 7.0625,0 12.74609,5.78516 12.74609,12.88282 0,7.08593 -5.68359,12.78906 -12.74609,12.78906 M 252.98047,79.695313 H 207.13672 V 64.269531 h 36.70312 c 3.9375,0 7.13672,-3.191406 7.13672,-7.132812 C 250.97656,53.195313 247.77734,50 243.83984,50 h -87.67187 c -3.9375,0 -7.13672,3.195313 -7.13672,7.136719 0,3.941406 3.19922,7.132812 7.13672,7.132812 h 36.69922 v 15.425782 h -45.84375 c -17.28125,0 -31.62891,14.089843 -31.62891,31.468747 v 169.31641 c 0,0 -0.008,0 -0.008,0 0,0 0.008,5.27344 0.008,6.83203 0,8.62109 37.875,15.61328 84.60938,15.61328 46.73046,0 84.60937,-6.99219 84.60937,-15.61328 0,-0.70703 -0.004,-2.15234 -0.0117,-3.62891 0.004,-0.0898 0.0117,-0.17187 0.0117,-0.25781 V 111.16406 c 0,-17.378904 -14.34766,-31.468747 -31.63281,-31.468747"
       style="fill:#ffffff;fill-opacity:1;fill-rule:nonzero;stroke:none" />
    <path
       id="path105"
       d="M 320,0 H 80 C 35.816406,0 0,35.816406 0,80 v 240 c 0,44.18359 35.816406,80 80,80 h 240 c 44.18359,0 80,-35.81641 80,-80 V 80 C 400,35.816406 364.18359,0 320,0 Z m 0,20 c 33.08594,0 60,26.914063 60,60 v 240 c 0,33.08594 -26.91406,60 -60,60 H 80 C 46.914063,380 20,353.08594 20,320 V 80 C 20,46.914063 46.914063,20 80,20 h 240"
       style="fill:#ffffff;fill-opacity:1;fill-rule:nonzero;stroke:none" />
  </g>
  <g
     id="surface483119"
     transform="translate(987.69147)">
    <path
       id="path121"
       d="M 320,0 H 80 C 35.816406,0 0,35.816406 0,80 v 240 c 0,44.18359 35.816406,80 80,80 h 240 c 44.18359,0 80,-35.81641 80,-80 V 80 C 400,35.816406 364.18359,0 320,0 Z m 0,20 c 33.08594,0 60,26.914063 60,60 v 240 c 0,33.08594 -26.91406,60 -60,60 H 80 C 46.914063,380 20,353.08594 20,320 V 80 C 20,46.914063 46.914063,20 80,20 h 240"
       style="fill:#ffffff;fill-opacity:1;fill-rule:nonzero;stroke:none" />
    <path
       id="path123"
       d="m 263.60547,200.68359 -9.11719,-14.74609 c 7.19141,-4.44531 15.13672,-6.69922 23.61719,-6.69922 6.53906,0 13.27734,1.37109 20.03906,4.07422 l -6.44141,16.09766 c -10.375,-4.14844 -20.03515,-3.70704 -28.09765,1.27343 z m -34.2461,42.05078 c -0.36328,-2.57421 -0.54687,-5.23046 -0.54687,-7.89062 0,-12.29297 3.80859,-24.55469 10.72266,-34.52734 l 14.24609,9.88281 c -4.84766,6.99219 -7.63281,15.97656 -7.63281,24.64453 0,1.85547 0.1289,3.69922 0.3789,5.47656 z m 28.92579,53.97266 -16.73829,-4.50781 c 0.65625,-2.45313 0.99219,-5.07031 0.99219,-7.78906 0,-7.0586 -2.17578,-14.62891 -6.46875,-22.50391 l 15.22656,-8.29688 c 5.69141,10.44922 8.58204,20.8125 8.58204,30.80079 0,4.23828 -0.53516,8.375 -1.59375,12.29687 z M 186.875,326.22656 c -12.14844,-3.83984 -24.26563,-10.46484 -36.00391,-19.6914 l 10.70703,-13.63282 c 10.09766,7.9336 20.36719,13.58203 30.51954,16.78907 z M 210.15625,330 c -1.38672,0 -2.80859,-0.043 -4.21875,-0.13281 l 1.07031,-17.30469 c 11.66797,0.71875 21.83985,-2.61328 28.24219,-9.22266 l 12.45312,12.06641 C 238.58203,324.81641 225.24609,330 210.15625,330"
       style="fill:#ffffff;fill-opacity:1;fill-rule:nonzero;stroke:none" />
    <path
       id="path125"
       d="m 132.81641,214.76562 c -15.32032,0 -27.73828,-12.41796 -27.73828,-27.73828 0,-15.32031 12.41796,-27.74218 27.73828,-27.74218 15.32421,0 27.74218,12.42187 27.74218,27.74218 0,15.32032 -12.41797,27.73828 -27.74218,27.73828 z m -0.008,-88.41796 c -34.46484,0 -62.406246,27.94921 -62.406246,62.40625 0,2.24609 0,4.34765 0,6.54296 0,39.40625 62.406246,100.08985 62.406246,100.08985 0,0 62.42578,-60.6836 62.42578,-100.08985 0,-2.0664 0,-4.42968 0,-6.54296 0,-34.45704 -27.95312,-62.40625 -62.42578,-62.40625"
       style="fill:#ffffff;fill-opacity:1;fill-rule:nonzero;stroke:none" />
    <path
       id="path127"
       d="m 294.39062,119.87891 c -8.64453,0 -15.64843,-7.00782 -15.64843,-15.64844 0,-8.640626 7.0039,-15.648439 15.64843,-15.648439 8.64063,0 15.64844,7.007813 15.64844,15.648439 0,8.64062 -7.00781,15.64844 -15.64844,15.64844 z M 294.38672,70 c -19.44531,0 -35.20703,15.769531 -35.20703,35.20313 0,1.26953 0,2.45312 0,3.6914 0,22.23047 35.20703,56.46094 35.20703,56.46094 0,0 35.21094,-34.23047 35.21094,-56.46094 0,-1.16406 0,-2.5 0,-3.6914 C 329.59766,85.769531 313.83203,70 294.38672,70"
       style="fill:#ffffff;fill-opacity:1;fill-rule:nonzero;stroke:none" />
  </g>
  <g
     id="g1113"
     transform="translate(274.5822,-390.32063)">
    <path
       style="fill:#ffffff;stroke-width:0.75"
       class="cls-1"
       d="m 1256.8622,624.84282 a 58.402498,58.402498 0 0 1 77.88,-55.03499 l 15.2925,-33.345 a 8.1374997,8.1374997 0 0 1 0.705,-1.215 l -4.875,-12 h -12.795 a 7.3949998,7.3949998 0 1 1 0,-14.7825 h 49.35 a 7.3949998,7.3949998 0 0 1 0,14.7825 h -20.6025 l 3.5325,8.6775 96.75,-2.4825 -4.5,-14.1 -24,-3.315 a 7.3949998,7.3949998 0 1 1 2.025,-14.6475 l 28.62,3.9525 a 7.3799998,7.3799998 0 0 1 6,5.085 l 8.6175,26.8875 a 7.4324998,7.4324998 0 0 1 0.6825,2.13 l 10.0575,31.695 a 59.699998,59.699998 0 0 1 8.88,-0.6675 58.372498,58.372498 0 1 1 -23.0925,4.7625 l -6.0825,-19.1775 -66.195,82.53749 a 7.4249998,7.4249998 0 0 1 -2.955,2.25 v 0 l -0.24,0.0975 a 7.8824998,7.8824998 0 0 1 -2.8125,0.4875 h -24.825 a 58.379998,58.379998 0 0 1 -115.4175,-12.5775 z m 58.38,12.615 a 7.3949998,7.3949998 0 0 1 -6.75,-10.5 l 20.025,-43.66499 a 43.589999,43.589999 0 1 0 28.4175,54.13499 z m 178.9125,-56.00249 13.2825,41.84249 a 7.3931932,7.3931932 0 1 1 -14.085,4.5 l -13.4475,-42.36749 a 43.589999,43.589999 0 1 0 18.585,-4.17 q -2.19,0 -4.335,0.195 z m -152.49,8.73 -14.9025,32.48999 h 32.01 a 43.552499,43.552499 0 0 0 -17.1075,-32.48999 z m 16.65,-36.3 -10.3725,22.62 a 58.379998,58.379998 0 0 1 25.6275,46.16999 h 12.6825 z m 12.9825,-7.32 28.065,69.05999 57.1725,-71.24999 z"
       id="path8" />
    <path
       style="fill:#ffffff;fill-opacity:1;fill-rule:nonzero;stroke:none"
       d="m 1526.859,390.32063 h -240 c -44.1836,0 -80,35.81641 -80,80 v 240 c 0,44.18359 35.8164,80 80,80 h 240 c 44.1836,0 80,-35.81641 80,-80 v -240 c 0,-44.18359 -35.8164,-80 -80,-80 z m 0,20 c 33.0859,0 60,26.91406 60,60 v 240 c 0,33.08594 -26.9141,60 -60,60 h -240 c -33.0859,0 -60,-26.91406 -60,-60 v -240 c 0,-33.08594 26.9141,-60 60,-60 h 240"
       id="path121-1" />
  </g>
</svg>
