<svg id="Layer_1" data-name="Layer 1" xmlns="http://www.w3.org/2000/svg" viewBox="0 0 400 400"><defs><style>.cls-1{fill:#fff;}</style></defs><title>bussi</title><path class="cls-1" d="M312.7,0H87.33C54.85,0,28,26.31,28,58.79V323.32c0,10.86,9.31,19.35,20.15,19.35h9.18V390.2a10,10,0,0,0,10,9.8h40.08a9.89,9.89,0,0,0,9.9-9.8V342.67h164V390.2c0,5.41,4.95,9.8,10.35,9.8h40.09a9.61,9.61,0,0,0,9.56-9.8V342.67h10.52c10.85,0,20.15-8.49,20.15-19.35V58.79C372,26.31,345.12,0,312.7,0M82.13,318.74a24,24,0,1,1,24-24,24,24,0,0,1-24,24m184,5.33H132.82a5.34,5.34,0,0,1,0-10.67H266.15a5.34,5.34,0,1,1,0,10.67m0-24H132.82a5.34,5.34,0,0,1,0-10.67H266.15a5.34,5.34,0,1,1,0,10.67m51.24,18.67a24,24,0,1,1,24-24,24,24,0,0,1-24,24m24.56-149c0,79.07-80.27,78.21-80.27,78.21H138s-80.24.81-80.24-78.26c0-1.88,0-6.37,0-12.2,0,0,0-77.71,0-85.83,0-43.92,40.87-41,40.87-41H301.05S342,27.82,342,71.74c0,8.12,0,86,0,86,0,5.83,0,10.21,0,12.1"/></svg>