<svg id="Layer_1" data-name="Layer 1" xmlns="http://www.w3.org/2000/svg" viewBox="0 0 400 400"><defs><style>.cls-1{fill:#fff;}</style></defs><title>juna</title><path class="cls-1" d="M400,191.62c-14.32-5.56-25.33-12.48-38.55-21-16.91-10.94-31.51-24.49-45.17-39.14-13-14-14.67-16.14-33.13-34.6-15.92-15.92-27.81-26.7-67.68-27.51-12.45,0-27.3-.49-49.3-.57-29.48-.1-49.43,12.9-73.33,54.33-23.73,41.13-32.48,64.28-33.61,69.55a195.32,195.32,0,0,0-3.85,46c.83,25.26,12.08,41.47,31.37,40.69,4.54-.18,15.44-.3,29.79-.36C76.06,289.07,27.64,312.22,0,331.24H38a167.79,167.79,0,0,1,19.83-13.11h78.94a196.69,196.69,0,0,0-17,12.9l40.14.21c64.06-50.89,82.85-50,123.37-53.37,46-3.94,65.88-4.73,116.69-2.37C400.05,275.17,399.61,195.51,400,191.62ZM178.5,231.94a15.61,15.61,0,1,1,15.6,15.61A15.6,15.6,0,0,1,178.5,231.94Zm102.26-113.8c9.24,9.92,18.53,19.8,27.76,29.73a5,5,0,0,1,1.62,2.89c.1,18.17.08,36.33.08,55.29-8.79-4-20.75-7.64-28.82-11.48a4.24,4.24,0,0,1-1.73-3.06c-1.54-20.83-1.21-70.92-1.51-75.13C278.53,116.1,280.1,117.42,280.76,118.14ZM86.32,179.82c0-11.56,7.22-24.24,13.81-36.93,19.88-38.3,36.08-58.28,66.11-58.39,15.13-.06,9,0,22.2,0,19.59,0,31.67,13,32.4,27.91.88,18.31.79,10.58.48,20.13-.48,14.93-.73,23.12-.73,23.12,0,25.9-9.87,36-41.66,36l-75.78-.31C89.81,191.44,86.32,188,86.32,179.82ZM89,247.55a15.61,15.61,0,1,1,15.61-15.61A15.61,15.61,0,0,1,89,247.55Zm66.43,59.2-74.13-.41c6.35-2.82,12.87-5.46,19.44-7.92H172.3C166.56,301,160.94,303.77,155.46,306.75Zm-22.52-19.07c11.6-3.45,12.65-3.95,22.77-6.36,21.92,0,46.28-.1,65.06-.05-10.39,2.59-12.08,3.33-22.13,6.77Zm218.62-65.07c-1.87-.51-3.42-.83-4.9-1.35-6.8-2.36-13.61-4.69-20.32-7.28a4.43,4.43,0,0,1-2.37-3.22c-.15-16.07-.11-32.14-.1-48.2a13.44,13.44,0,0,1,.32-1.71c4.54,3.41,8.59,6.63,12.83,9.59s8.52,5.5,12.72,8.32c.77.51,1.74,1.49,1.74,2.26C351.59,194.71,351.56,208.39,351.56,222.61Zm37.05,11.62c-5.18-1.52-9.91-2.82-14.58-4.3-3.59-1.14-8.43-1.53-10.27-4s-.69-12-.71-15.79c-.05-9.2,0-13.58,0-23.51,1.76.82,3,1.48,4.38,2,6.19,2.63,12.41,5.18,18.56,7.89,1,.46,2.51,1.56,2.52,2.39C388.66,210.44,388.61,222,388.61,234.23Z"/></svg>