<svg id="Layer_1" data-name="Layer 1" xmlns="http://www.w3.org/2000/svg" viewBox="0 0 400 400"><defs><style>.cls-1{fill:#fff;}</style></defs><title>pysakki</title><path class="cls-1" d="M200,0C116.66,0,49.12,67.26,49.12,150.22c0,104.32,125,222.43,147.47,248.21a4.55,4.55,0,0,0,6.87,0c22.46-25.78,147.42-144.24,147.42-248.21C350.88,67.26,283.34,0,200,0Zm0,274A124.06,124.06,0,1,1,324.06,149.89,124.06,124.06,0,0,1,200,274Z"/><path class="cls-1" d="M200,53.43a97.8,97.8,0,1,0,97.8,97.8A97.8,97.8,0,0,0,200,53.43Zm48.36,112.76a13.3,13.3,0,0,1-7.46,2.08l-41.18-.88A13.43,13.43,0,0,1,186.59,154L186.74,86a13.41,13.41,0,1,1,26.82,0l-.11,54.79,28,.6a13.41,13.41,0,0,1,6.89,24.74Z"/></svg>