<svg id="Layer_1" data-name="Layer 1" xmlns="http://www.w3.org/2000/svg" viewBox="0 0 400 400"><defs><style>.cls-1{fill:#fff;}</style></defs><title>ratikka</title><polygon class="cls-1" points="95.98 400 57.01 400 124.56 348.13 145.63 348.7 95.98 400"/><polygon class="cls-1" points="304.02 400 342.99 400 275.44 348.13 254.37 348.7 304.02 400"/><path class="cls-1" d="M270.64,39.59H209.51V19h48.94a9.52,9.52,0,0,0,0-19H141.55a9.52,9.52,0,0,0,0,19h48.94V39.59H129.36a42.24,42.24,0,0,0-42.18,42V307.31h0s0,7,0,9.11c0,11.5,50.51,20.82,112.82,20.82s112.82-9.32,112.82-20.82c0-.93,0-2.86,0-4.83,0-.12,0-.23,0-.35V81.55a42.24,42.24,0,0,0-42.18-42M125.71,307.92a17.12,17.12,0,1,1,17-17.06,17.09,17.09,0,0,1-17,17.06m148.54,0a17.12,17.12,0,1,1,17.11-17.06,17.06,17.06,0,0,1-17.11,17.06m17.21-103.44c0,56.47-57.12,55.83-57.12,55.83h-68.9s-57.09.59-57.09-55.84c0-1.36,0-4.5,0-8.66,0,0,0-99.21,0-105.07,0-31.3,29.07-29.26,29.07-29.26H262.31s29.15-2,29.15,29.26c0,5.86,0,105.1,0,105.1,0,4.17,0,7.31,0,8.64"/></svg>